<?xml version="1.0" encoding="UTF-8" standalone="no"?>
<svg
   xmlns:dc="http://purl.org/dc/elements/1.1/"
   xmlns:cc="http://creativecommons.org/ns#"
   xmlns:rdf="http://www.w3.org/1999/02/22-rdf-syntax-ns#"
   xmlns:svg="http://www.w3.org/2000/svg"
   xmlns="http://www.w3.org/2000/svg"
   xmlns:xlink="http://www.w3.org/1999/xlink"
   version="1.1"
   id="svg2"
   viewBox="0 0 300 300"
   height="300"
   width="300">
  <defs
     id="defs4">
    <linearGradient
       id="linearGradient4831-5-4">
      <stop
         offset="0"
         style="stop-color:#ffd43b;stop-opacity:1"
         id="stop4833-6-2" />
      <stop
         offset="1"
         style="stop-color:#ffffff;stop-opacity:1"
         id="stop4835-4-2" />
    </linearGradient>
    <linearGradient
       id="linearGradient4815-1-2">
      <stop
         offset="0"
         style="stop-color:#306998;stop-opacity:1"
         id="stop4817-7-2" />
      <stop
         offset="1"
         style="stop-color:#ffffff;stop-opacity:1"
         id="stop4819-1-1" />
    </linearGradient>
    <linearGradient
       gradientTransform="matrix(0.92707259,0,0,0.92707259,-143.61766,716.04614)"
       gradientUnits="userSpaceOnUse"
       y2="244.66188"
       x2="411.27676"
       y1="242.34045"
       x1="381.64645"
       id="linearGradient4176"
       xlink:href="#linearGradient4815-1-2" />
    <linearGradient
       gradientTransform="matrix(0.92707259,0,0,0.92707259,-143.61766,716.04614)"
       gradientUnits="userSpaceOnUse"
       y2="260.06253"
       x2="393.88928"
       y1="259.34827"
       x1="389.259"
       id="linearGradient4178"
       xlink:href="#linearGradient4831-5-4" />
  </defs>
  <metadata
     id="metadata7">
    <rdf:RDF>
      <cc:Work
         rdf:about="">
        <dc:format>image/svg+xml</dc:format>
        <dc:type
           rdf:resource="http://purl.org/dc/dcmitype/StillImage" />
        <dc:title></dc:title>
      </cc:Work>
    </rdf:RDF>
  </metadata>
  <g
     transform="translate(0,-752.36216)"
     id="layer1">
    <rect
       y="764.58893"
       x="78.879539"
       height="278.12161"
       width="185.4144"
       id="rect4160"
       style="opacity:1;fill:#ac9d93;fill-opacity:1;stroke:none;stroke-width:10;stroke-miterlimit:4;stroke-dasharray:none;stroke-opacity:1" />
    <rect
       y="803.89215"
       x="102.0564"
       height="54.299534"
       width="139.06081"
       id="rect4162"
       style="opacity:1;fill:#e3dedb;fill-opacity:1;stroke:none;stroke-width:10;stroke-miterlimit:4;stroke-dasharray:none;stroke-opacity:1" />
    <rect
       ry="0"
       y="764.58893"
       x="41.7967"
       height="278.12161"
       width="37.082878"
       id="rect4164"
       style="opacity:1;fill:#6c5d53;fill-opacity:1;stroke:none;stroke-width:10;stroke-miterlimit:4;stroke-dasharray:none;stroke-opacity:1" />
    <rect
       y="815.57849"
       x="111.32711"
       height="9.2707195"
       width="120.51936"
       id="rect4166"
       style="opacity:1;fill:#c8beb7;fill-opacity:1;stroke:none;stroke-width:10;stroke-miterlimit:4;stroke-dasharray:none;stroke-opacity:1" />
    <rect
       style="opacity:1;fill:#c8beb7;fill-opacity:1;stroke:none;stroke-width:10;stroke-miterlimit:4;stroke-dasharray:none;stroke-opacity:1"
       id="rect4168"
       width="120.51936"
       height="9.2707195"
       x="111.32711"
       y="834.11957" />
    <path
       d="m 176.17737,900.72566 c -0.47524,0.0362 -0.83106,0.23762 -1.18689,0.59344 -1.55452,3.7973 -3.0023,8.04547 -0.94926,8.6032 2.0885,0.59344 2.12408,0.59344 4.23635,1.40026 -0.23762,0.23762 -0.23762,0.47523 -0.35583,0.71164 -6.847,-2.30211 -14.38225,-2.84791 -21.95067,-1.18688 -22.2082,4.94836 -36.19881,26.96779 -31.24925,49.17599 2.61066,11.72407 9.99164,21.11527 19.62842,26.6818 l 4.87707,-8.44894 c -1.87489,0.47524 -3.06153,0.0482 -4.86525,-1.06747 1.91047,0.10856 2.90726,-1.48336 3.40565,-2.27835 0.23762,-0.35582 0.23762,-0.59344 0.12062,-0.71165 -0.59344,-0.35582 -1.06747,-0.83106 -1.62569,-1.28156 -0.23762,-0.0241 -0.47403,-0.0119 -0.94927,0.12061 -3.82093,0.71165 -5.00758,0.0724 -6.97739,-2.06474 1.81554,0.59345 3.19204,-0.71164 3.88028,-1.30532 0.23762,-0.23762 0.35583,-0.47403 0.35583,-0.59345 -0.47524,-0.59344 -0.83106,-1.18688 -1.28157,-1.73243 -0.23762,-0.0603 -0.47403,-0.12062 -0.94926,-0.0844 -3.86847,-0.35582 -4.86525,-1.22222 -6.20616,-3.79729 1.60192,1.06747 3.2632,0.12062 4.09389,-0.23762 0.23762,-0.12062 0.35583,-0.23762 0.47403,-0.47524 -0.35582,-0.71164 -0.59344,-1.40025 -0.83106,-2.12408 -0.12061,-0.10856 -0.35582,-0.23762 -0.83105,-0.23762 -3.65485,-1.31715 -4.37868,-2.44444 -5.0077,-5.28054 1.28156,1.42402 3.10905,1.06747 4.02273,0.83106 0.23762,-0.0482 0.35582,-0.12062 0.47523,-0.23761 -0.12061,-0.83106 -0.23761,-1.56635 -0.23761,-2.3377 -0.12062,-0.12062 -0.35583,-0.23762 -0.59345,-0.47403 -3.19203,-2.21901 -3.60744,-3.48876 -3.47693,-6.40796 0.83106,1.7088 2.74116,1.7919 3.67861,1.83931 0.23762,0.01 0.35582,-0.0362 0.47523,-0.0844 0.0965,-0.83105 0.23762,-1.62569 0.35583,-2.43262 -0.10856,-0.12062 -0.23762,-0.35582 -0.47403,-0.47524 -2.50379,-2.9666 -2.5869,-4.30751 -1.7088,-7.08426 0.35582,1.86307 2.17161,2.42081 3.07347,2.70559 0.23762,0.0603 0.35582,0.0724 0.47524,0.0482 0.35582,-0.83105 0.59344,-1.55452 1.06747,-2.30211 -0.0482,-0.12062 -0.12062,-0.35582 -0.35583,-0.59344 -1.64945,-3.51252 -1.37649,-4.80591 0.23762,-7.27424 -0.10856,1.91059 1.48336,2.90738 2.27835,3.40578 0.12062,0.10855 0.35583,0.12061 0.47524,0.12061 0.47403,-0.71164 1.06747,-1.36467 1.59011,-2.01733 -0.0121,-0.12062 -0.0482,-0.35583 -0.12062,-0.59344 -0.71165,-3.82106 -0.0965,-5.01953 2.06474,-6.98946 -0.59344,1.81566 0.71165,3.20398 1.30533,3.89222 0.12062,0.12062 0.23762,0.23762 0.35582,0.23762 0.71165,-0.59344 1.37662,-1.06747 2.11226,-1.56634 0.0241,-0.12062 0.0241,-0.35583 0.01,-0.59344 0.35583,-3.86847 1.22223,-4.86525 3.7973,-6.20617 -1.06747,1.60193 -0.12062,3.26321 0.23762,4.0939 0.0844,0.12062 0.12062,0.23762 0.23762,0.35583 0.83105,-0.35583 1.61387,-0.71165 2.45638,-0.94927 0.0482,-0.12062 0.10856,-0.35582 0.12062,-0.59344 1.31715,-3.65485 2.43263,-4.39062 5.28054,-5.01952 -1.42402,1.28157 -1.06747,3.12087 -0.83106,4.03455 0.0362,0.12062 0.12062,0.23762 0.12062,0.35583 0.83106,-0.12062 1.73256,-0.23762 2.59884,-0.23762 0.0965,-0.12062 0.23761,-0.23762 0.23761,-0.47403 2.21901,-3.19216 3.48876,-3.59562 6.40796,-3.465 -1.69698,0.83106 -1.7919,2.72923 -1.82749,3.66667 -0.007,0.12062 0.012,0.35583 0.0482,0.47403 0.83106,0.10856 1.73256,0.23762 2.5869,0.47524 0.12062,-0.0965 0.23761,-0.23762 0.35582,-0.35583 2.9666,-2.50379 4.30751,-2.57495 7.09608,-1.69685 -1.86306,0.35582 -2.44444,2.17161 -2.7174,3.07335 -0.0482,0.12062 -0.0603,0.35582 -0.0482,0.47523 0.83106,0.35583 1.57829,0.71165 2.3377,1.06747 0.12062,-0.0603 0.35582,-0.12062 0.59344,-0.23762 0.71165,-0.35582 1.36467,-0.59344 1.94617,-0.71164 l 5.2212,-9.04238 c 3.13281,-5.77893 -0.0241,0.0121 3.19203,-5.79075 0,0 0.47524,-1.06747 0.0965,-2.39704 -0.35583,-1.19894 -1.34091,-2.64624 -3.92781,-3.83288 -4.71098,-1.69698 -7.27411,-2.74117 -8.74565,-2.6226 z m 1.94605,3.19216 c 0.83106,0 1.42401,0.59344 1.42401,1.42389 0,0.83106 -0.59344,1.42402 -1.42401,1.42402 -0.83106,0 -1.42402,-0.59344 -1.42402,-1.42402 0,-0.83106 0.59344,-1.42389 1.42402,-1.42389 z"
       id="path3155-6-8"
       style="fill:url(#linearGradient4176);fill-opacity:1;stroke:none" />
    <path
       d="m 153.75326,1001.9314 c 0.47524,-0.036 0.83106,-0.2376 1.18688,-0.5934 1.55441,-3.79729 3.00219,-8.04546 0.94927,-8.6032 -2.0885,-0.59344 -2.12409,-0.59344 -4.23635,-1.40025 0.12062,-0.23762 0.23762,-0.47403 0.35582,-0.71165 6.84689,2.302 14.38214,2.84792 21.95056,1.18688 22.2082,-4.94835 36.19881,-26.9667 31.24804,-49.17598 -2.61054,-11.72407 -9.99152,-21.11528 -19.62709,-26.6818 l -4.87719,8.44893 c 1.87488,-0.47523 3.07346,-0.0482 4.86525,1.06747 -1.91047,-0.10855 -2.90726,1.48336 -3.40565,2.27836 -0.23762,0.35582 -0.23762,0.59344 -0.12062,0.71164 0.59344,0.35583 1.06747,0.83106 1.62569,1.28157 0.23762,0.0241 0.47523,0.0118 0.94926,-0.12062 3.82094,-0.71164 5.00758,-0.0724 6.97752,2.06486 -1.81567,-0.59344 -3.19216,0.71165 -3.88041,1.30521 -0.23762,0.23762 -0.35582,0.47524 -0.35582,0.59344 0.47523,0.59344 0.83106,1.18688 1.28157,1.73256 0.23761,0.0603 0.47402,0.12062 0.94926,0.0965 3.86846,0.35583 4.86525,1.21029 6.20616,3.79718 -1.60193,-1.06747 -3.2632,-0.12062 -4.0939,0.23762 -0.23761,0.12062 -0.35582,0.23762 -0.47403,0.47523 0.35583,0.71165 0.59344,1.40026 0.83106,2.12409 0.12062,0.10856 0.35583,0.23762 0.83106,0.23762 3.65485,1.31715 4.3788,2.44456 5.0077,5.28066 -1.28157,-1.42402 -3.10905,-1.06747 -4.02273,-0.83106 -0.23762,0.0482 -0.35583,0.12061 -0.47403,0.23761 0.12062,0.83106 0.23762,1.56647 0.23762,2.3377 0.12061,0.12062 0.35582,0.23762 0.59344,0.47524 3.19215,2.21901 3.59562,3.48876 3.47693,6.40783 -0.83105,-1.69685 -2.74116,-1.79178 -3.66679,-1.8393 -0.23761,-0.009 -0.35582,0.0362 -0.47523,0.0844 -0.0965,0.83106 -0.23762,1.62569 -0.35582,2.43263 0.10855,0.12061 0.23761,0.35582 0.47523,0.47523 2.50379,2.96672 2.5869,4.30763 1.70868,7.08438 -0.35583,-1.86306 -2.17149,-2.4208 -3.07335,-2.70558 -0.23762,-0.0603 -0.35582,-0.0724 -0.47524,-0.0482 -0.35582,0.83106 -0.59344,1.55453 -1.06747,2.30212 0.0603,0.12062 0.12062,0.35582 0.35583,0.59344 1.64945,3.5124 1.37649,4.8059 -0.23762,7.26229 0.10856,-1.91059 -1.48324,-2.90738 -2.27836,-3.40577 -0.12061,-0.10856 -0.35582,-0.12062 -0.47523,-0.12062 -0.47403,0.71165 -1.06747,1.36455 -1.59011,2.01722 0.0121,0.12062 0.0483,0.35582 0.12062,0.59344 0.71165,3.82106 0.0844,5.01952 -2.06486,6.98945 0.59344,-1.81566 -0.71165,-3.20397 -1.30533,-3.89222 -0.12062,-0.12062 -0.23762,-0.23762 -0.35582,-0.23762 -0.71165,0.59344 -1.3765,1.06747 -2.11227,1.56635 -0.0241,0.12062 -0.0241,0.35582 -0.009,0.59344 -0.35583,3.86858 -1.22235,4.86537 -3.7973,6.20628 1.06747,-1.60205 0.12062,-3.26332 -0.23762,-4.09402 -0.0724,-0.12062 -0.12062,-0.23762 -0.23762,-0.35582 -0.83106,0.35582 -1.61375,0.71165 -2.45626,0.94926 -0.0482,0.12062 -0.10856,0.35583 -0.12062,0.59344 -1.31715,3.65497 -2.43263,4.39062 -5.28066,5.01952 1.42402,-1.28156 1.06747,-3.12087 0.83106,-4.03455 -0.0362,-0.12062 -0.12062,-0.23762 -0.12062,-0.35582 -0.83106,0.12062 -1.73244,0.23762 -2.61066,0.23762 -0.0844,0.12061 -0.23762,0.23761 -0.23762,0.47402 -2.21901,3.19216 -3.48875,3.59563 -6.40795,3.46512 1.7088,-0.83106 1.7919,-2.72935 1.82748,-3.66679 0.007,-0.12062 -0.0118,-0.35582 -0.0482,-0.47403 -0.83106,-0.10855 -1.73256,-0.23762 -2.5869,-0.47523 -0.12062,0.0844 -0.23762,0.23761 -0.35582,0.35582 -2.96672,2.50379 -4.31946,2.57495 -7.0962,1.69686 1.87488,-0.35583 2.44444,-2.17149 2.7174,-3.07335 0.0482,-0.12062 0.0603,-0.35583 0.0482,-0.47524 -0.83106,-0.35582 -1.57829,-0.71164 -2.3377,-1.06747 -0.12062,0.0603 -0.35582,0.12062 -0.59344,0.23762 -0.71165,0.35582 -1.36467,0.59344 -1.94617,0.71165 l -5.2212,9.04225 c -3.13281,5.77893 0.0241,-0.0121 -3.19216,5.79087 0,0 -0.47523,1.06747 -0.0844,2.39705 0.35583,1.19894 1.34091,2.64611 3.92781,3.8447 4.71098,1.69682 7.27411,2.74112 8.74553,2.62242 z m -1.94617,-3.19199 c -0.83106,0 -1.42402,-0.59344 -1.42402,-1.42401 0,-0.83106 0.59344,-1.4239 1.42402,-1.4239 0.83106,0 1.42402,0.59344 1.42402,1.4239 0,0.83105 -0.59345,1.42401 -1.42402,1.42401 z"
       id="path4583-2-6"
       style="fill:url(#linearGradient4178);fill-opacity:1;stroke:none" />
  </g>
</svg>
